<mxfile host="app.diagrams.net" agent="Mozilla/5.0 (Windows NT 10.0; Win64; x64) AppleWebKit/537.36 (KHTML, like Gecko) Chrome/129.0.0.0 Safari/537.36" version="24.7.17">
  <diagram name="Page-1" id="ClGE427IEQz7QlPPfn7F">
    <mxGraphModel dx="724" dy="477" grid="1" gridSize="10" guides="1" tooltips="1" connect="1" arrows="1" fold="1" page="1" pageScale="1" pageWidth="850" pageHeight="1100" math="0" shadow="0">
      <root>
        <mxCell id="0" />
        <mxCell id="1" parent="0" />
        <mxCell id="ISm1dJCHN2RDm-FYhJmg-4" style="edgeStyle=orthogonalEdgeStyle;rounded=0;orthogonalLoop=1;jettySize=auto;html=1;exitX=0.5;exitY=1;exitDx=0;exitDy=0;entryX=0.5;entryY=0;entryDx=0;entryDy=0;" edge="1" parent="1" source="ISm1dJCHN2RDm-FYhJmg-1" target="ISm1dJCHN2RDm-FYhJmg-3">
          <mxGeometry relative="1" as="geometry" />
        </mxCell>
        <mxCell id="ISm1dJCHN2RDm-FYhJmg-1" value="Pocetak" style="ellipse;whiteSpace=wrap;html=1;" vertex="1" parent="1">
          <mxGeometry x="350" y="120" width="120" height="40" as="geometry" />
        </mxCell>
        <mxCell id="ISm1dJCHN2RDm-FYhJmg-2" value="" style="shape=trapezoid;perimeter=trapezoidPerimeter;whiteSpace=wrap;html=1;fixedSize=1;rotation=-180;" vertex="1" parent="1">
          <mxGeometry x="350" y="180" width="120" height="30" as="geometry" />
        </mxCell>
        <mxCell id="ISm1dJCHN2RDm-FYhJmg-6" style="edgeStyle=orthogonalEdgeStyle;rounded=0;orthogonalLoop=1;jettySize=auto;html=1;exitX=0.5;exitY=1;exitDx=0;exitDy=0;entryX=0.5;entryY=0;entryDx=0;entryDy=0;" edge="1" parent="1" source="ISm1dJCHN2RDm-FYhJmg-3" target="ISm1dJCHN2RDm-FYhJmg-5">
          <mxGeometry relative="1" as="geometry" />
        </mxCell>
        <mxCell id="ISm1dJCHN2RDm-FYhJmg-3" value="a, b" style="text;html=1;align=center;verticalAlign=middle;whiteSpace=wrap;rounded=0;" vertex="1" parent="1">
          <mxGeometry x="380" y="180" width="60" height="30" as="geometry" />
        </mxCell>
        <mxCell id="ISm1dJCHN2RDm-FYhJmg-8" style="edgeStyle=orthogonalEdgeStyle;rounded=0;orthogonalLoop=1;jettySize=auto;html=1;exitX=0;exitY=0.5;exitDx=0;exitDy=0;entryX=0.5;entryY=0;entryDx=0;entryDy=0;" edge="1" parent="1" source="ISm1dJCHN2RDm-FYhJmg-5" target="ISm1dJCHN2RDm-FYhJmg-7">
          <mxGeometry relative="1" as="geometry" />
        </mxCell>
        <mxCell id="ISm1dJCHN2RDm-FYhJmg-5" value="a &amp;lt; b" style="shape=hexagon;perimeter=hexagonPerimeter2;whiteSpace=wrap;html=1;fixedSize=1;" vertex="1" parent="1">
          <mxGeometry x="350" y="230" width="110" height="30" as="geometry" />
        </mxCell>
        <mxCell id="ISm1dJCHN2RDm-FYhJmg-15" style="edgeStyle=orthogonalEdgeStyle;rounded=0;orthogonalLoop=1;jettySize=auto;html=1;exitX=0.5;exitY=1;exitDx=0;exitDy=0;" edge="1" parent="1" source="ISm1dJCHN2RDm-FYhJmg-7">
          <mxGeometry relative="1" as="geometry">
            <mxPoint x="410" y="359.9999999999999" as="targetPoint" />
          </mxGeometry>
        </mxCell>
        <mxCell id="ISm1dJCHN2RDm-FYhJmg-7" value="z = a&amp;nbsp; + b" style="rounded=0;whiteSpace=wrap;html=1;" vertex="1" parent="1">
          <mxGeometry x="210" y="280" width="120" height="30" as="geometry" />
        </mxCell>
        <mxCell id="ISm1dJCHN2RDm-FYhJmg-11" style="edgeStyle=orthogonalEdgeStyle;rounded=0;orthogonalLoop=1;jettySize=auto;html=1;exitX=1;exitY=0.5;exitDx=0;exitDy=0;entryX=0.5;entryY=0;entryDx=0;entryDy=0;" edge="1" parent="1" target="ISm1dJCHN2RDm-FYhJmg-12" source="ISm1dJCHN2RDm-FYhJmg-5">
          <mxGeometry relative="1" as="geometry">
            <mxPoint x="620" y="245" as="sourcePoint" />
          </mxGeometry>
        </mxCell>
        <mxCell id="ISm1dJCHN2RDm-FYhJmg-16" style="edgeStyle=orthogonalEdgeStyle;rounded=0;orthogonalLoop=1;jettySize=auto;html=1;exitX=0.5;exitY=1;exitDx=0;exitDy=0;" edge="1" parent="1" source="ISm1dJCHN2RDm-FYhJmg-12">
          <mxGeometry relative="1" as="geometry">
            <mxPoint x="410" y="359.9999999999999" as="targetPoint" />
          </mxGeometry>
        </mxCell>
        <mxCell id="ISm1dJCHN2RDm-FYhJmg-12" value="z = a&amp;nbsp; - b" style="rounded=0;whiteSpace=wrap;html=1;" vertex="1" parent="1">
          <mxGeometry x="480" y="280" width="120" height="30" as="geometry" />
        </mxCell>
        <mxCell id="ISm1dJCHN2RDm-FYhJmg-13" value="DA" style="text;html=1;align=center;verticalAlign=middle;whiteSpace=wrap;rounded=0;" vertex="1" parent="1">
          <mxGeometry x="260" y="220" width="60" height="30" as="geometry" />
        </mxCell>
        <mxCell id="ISm1dJCHN2RDm-FYhJmg-14" value="NE" style="text;html=1;align=center;verticalAlign=middle;whiteSpace=wrap;rounded=0;" vertex="1" parent="1">
          <mxGeometry x="510" y="220" width="60" height="30" as="geometry" />
        </mxCell>
        <mxCell id="ISm1dJCHN2RDm-FYhJmg-19" style="edgeStyle=orthogonalEdgeStyle;rounded=0;orthogonalLoop=1;jettySize=auto;html=1;exitX=0.5;exitY=1;exitDx=0;exitDy=0;entryX=0.5;entryY=0;entryDx=0;entryDy=0;" edge="1" parent="1" source="ISm1dJCHN2RDm-FYhJmg-17" target="ISm1dJCHN2RDm-FYhJmg-18">
          <mxGeometry relative="1" as="geometry" />
        </mxCell>
        <mxCell id="ISm1dJCHN2RDm-FYhJmg-17" value="z" style="shape=trapezoid;perimeter=trapezoidPerimeter;whiteSpace=wrap;html=1;fixedSize=1;" vertex="1" parent="1">
          <mxGeometry x="350" y="360" width="120" height="30" as="geometry" />
        </mxCell>
        <mxCell id="ISm1dJCHN2RDm-FYhJmg-18" value="KRAJ" style="ellipse;whiteSpace=wrap;html=1;" vertex="1" parent="1">
          <mxGeometry x="350" y="410" width="120" height="40" as="geometry" />
        </mxCell>
      </root>
    </mxGraphModel>
  </diagram>
</mxfile>
